<mxfile host="Electron" agent="Mozilla/5.0 (Macintosh; Intel Mac OS X 10_15_7) AppleWebKit/537.36 (KHTML, like Gecko) draw.io/26.1.1 Chrome/132.0.6834.210 Electron/34.3.3 Safari/537.36" version="26.1.1">
  <diagram name="Page-1" id="GJGxYShn1vkkS5dCXHfT">
    <mxGraphModel dx="2074" dy="1267" grid="1" gridSize="10" guides="1" tooltips="1" connect="1" arrows="1" fold="1" page="1" pageScale="1" pageWidth="1169" pageHeight="827" math="0" shadow="0">
      <root>
        <mxCell id="0" />
        <mxCell id="1" parent="0" />
        <mxCell id="ak-yXslXo1z2-yepF_gu-51" value="" style="rounded=0;whiteSpace=wrap;html=1;" parent="1" vertex="1">
          <mxGeometry x="360" y="20" width="600" height="740" as="geometry" />
        </mxCell>
        <mxCell id="ak-yXslXo1z2-yepF_gu-17" style="rounded=0;orthogonalLoop=1;jettySize=auto;html=1;entryX=0;entryY=0.5;entryDx=0;entryDy=0;strokeColor=default;" parent="1" source="ak-yXslXo1z2-yepF_gu-1" target="ak-yXslXo1z2-yepF_gu-2" edge="1">
          <mxGeometry relative="1" as="geometry" />
        </mxCell>
        <mxCell id="ak-yXslXo1z2-yepF_gu-18" style="rounded=0;orthogonalLoop=1;jettySize=auto;html=1;entryX=0;entryY=0.5;entryDx=0;entryDy=0;" parent="1" source="ak-yXslXo1z2-yepF_gu-1" target="ak-yXslXo1z2-yepF_gu-8" edge="1">
          <mxGeometry relative="1" as="geometry">
            <mxPoint x="410" y="256" as="targetPoint" />
          </mxGeometry>
        </mxCell>
        <mxCell id="ak-yXslXo1z2-yepF_gu-19" style="rounded=0;orthogonalLoop=1;jettySize=auto;html=1;entryX=0;entryY=0.5;entryDx=0;entryDy=0;" parent="1" source="ak-yXslXo1z2-yepF_gu-1" target="ak-yXslXo1z2-yepF_gu-5" edge="1">
          <mxGeometry relative="1" as="geometry">
            <mxPoint x="410" y="365" as="targetPoint" />
          </mxGeometry>
        </mxCell>
        <mxCell id="ak-yXslXo1z2-yepF_gu-1" value="&lt;strong&gt;Account Admin&lt;/strong&gt;" style="shape=umlActor;verticalLabelPosition=bottom;verticalAlign=top;html=1;outlineConnect=0;fontSize=12;" parent="1" vertex="1">
          <mxGeometry x="80" y="340" width="30" height="60" as="geometry" />
        </mxCell>
        <mxCell id="ak-yXslXo1z2-yepF_gu-2" value="Login" style="ellipse;whiteSpace=wrap;html=1;" parent="1" vertex="1">
          <mxGeometry x="430" y="170" width="140" height="70" as="geometry" />
        </mxCell>
        <mxCell id="ak-yXslXo1z2-yepF_gu-28" style="rounded=0;orthogonalLoop=1;jettySize=auto;html=1;entryX=0;entryY=0.5;entryDx=0;entryDy=0;startArrow=classic;startFill=1;endArrow=none;dashed=1;" parent="1" source="ak-yXslXo1z2-yepF_gu-5" target="ak-yXslXo1z2-yepF_gu-9" edge="1">
          <mxGeometry relative="1" as="geometry" />
        </mxCell>
        <mxCell id="ak-yXslXo1z2-yepF_gu-43" value="&amp;lt;&amp;lt;include&amp;gt;&amp;gt;" style="edgeLabel;html=1;align=center;verticalAlign=middle;resizable=0;points=[];" parent="ak-yXslXo1z2-yepF_gu-28" vertex="1" connectable="0">
          <mxGeometry x="0.186" y="2" relative="1" as="geometry">
            <mxPoint as="offset" />
          </mxGeometry>
        </mxCell>
        <mxCell id="ak-yXslXo1z2-yepF_gu-5" value="Search Recipes Seeker" style="ellipse;whiteSpace=wrap;html=1;" parent="1" vertex="1">
          <mxGeometry x="430" y="490" width="140" height="70" as="geometry" />
        </mxCell>
        <mxCell id="ak-yXslXo1z2-yepF_gu-8" value="View all&lt;div&gt;Recipes Seeker&#39;s accounts&lt;/div&gt;" style="ellipse;whiteSpace=wrap;html=1;" parent="1" vertex="1">
          <mxGeometry x="430" y="330" width="140" height="70" as="geometry" />
        </mxCell>
        <mxCell id="ak-yXslXo1z2-yepF_gu-9" value="Delete&lt;div&gt;&lt;span style=&quot;background-color: transparent; color: light-dark(rgb(0, 0, 0), rgb(255, 255, 255));&quot;&gt;Recipes Seeker&#39;s account(s)&lt;/span&gt;&lt;/div&gt;" style="ellipse;whiteSpace=wrap;html=1;" parent="1" vertex="1">
          <mxGeometry x="770" y="400" width="140" height="70" as="geometry" />
        </mxCell>
        <mxCell id="ak-yXslXo1z2-yepF_gu-52" value="Chef&#39;s Code" style="text;html=1;align=center;verticalAlign=middle;whiteSpace=wrap;rounded=0;fontStyle=1;fontSize=20;" parent="1" vertex="1">
          <mxGeometry x="370" y="30" width="140" height="30" as="geometry" />
        </mxCell>
        <mxCell id="tfbg6VtXuSJm1_XKT0S1-1" style="rounded=0;orthogonalLoop=1;jettySize=auto;html=1;entryX=0;entryY=0.5;entryDx=0;entryDy=0;startArrow=classic;startFill=1;endArrow=none;dashed=1;exitX=1;exitY=0.5;exitDx=0;exitDy=0;" parent="1" source="ak-yXslXo1z2-yepF_gu-8" target="ak-yXslXo1z2-yepF_gu-9" edge="1">
          <mxGeometry relative="1" as="geometry">
            <mxPoint x="563" y="512" as="sourcePoint" />
            <mxPoint x="770" y="425" as="targetPoint" />
          </mxGeometry>
        </mxCell>
        <mxCell id="tfbg6VtXuSJm1_XKT0S1-2" value="&amp;lt;&amp;lt;include&amp;gt;&amp;gt;" style="edgeLabel;html=1;align=center;verticalAlign=middle;resizable=0;points=[];" parent="tfbg6VtXuSJm1_XKT0S1-1" vertex="1" connectable="0">
          <mxGeometry x="0.186" y="2" relative="1" as="geometry">
            <mxPoint x="-10" y="-5" as="offset" />
          </mxGeometry>
        </mxCell>
      </root>
    </mxGraphModel>
  </diagram>
</mxfile>
